Coordinates
version=1
nRows=19
nColumns=36
inDegrees=yes

Units are S.I. units (second, meters, Newtons, ...)
If the header above contains a line with 'inDegrees', this indicates whether rotational values are in degrees (yes) or radians (no).

endheader
time	pelvis_tilt	pelvis_list	pelvis_rotation	pelvis_tx	pelvis_ty	pelvis_tz	hip_flexion_r	hip_adduction_r	hip_rotation_r	knee_angle_r	knee_angle_r_beta	ankle_angle_r	subtalar_angle_r	mtp_angle_r	hip_flexion_l	hip_adduction_l	hip_rotation_l	knee_angle_l	knee_angle_l_beta	ankle_angle_l	subtalar_angle_l	mtp_angle_l	lumbar_extension	lumbar_bending	lumbar_rotation	arm_flex_r	arm_add_r	arm_rot_r	elbow_flex_r	pro_sup_r	arm_flex_l	arm_add_l	arm_rot_l	elbow_flex_l	pro_sup_l
      1.75000000	     -6.64263812	     -0.47732035	     -0.69147972	     -1.03390182	      1.29803044	     -0.05845269	     16.52477614	     -1.26564831	     -1.20110925	     19.98552987	      0.34881330	      9.57981330	    -11.13179084	     -7.49999987	     17.93446700	      0.22149933	     11.83278279	     25.50640572	      0.44517076	      8.54034465	    -14.50695222	     -7.49999987	    -15.46922154	      1.74230181	     -8.67469083	      9.75782090	    -11.31882967	     45.19803881	     11.95973887	     65.71592079	     17.04443024	    -14.36081337	     22.68153191	     26.55794747	     59.46129454
      1.75416670	     -6.64154565	     -0.44521467	     -0.62066327	     -1.03410559	      1.29797399	     -0.05887893	     16.48848949	     -1.32027320	     -1.22824320	     19.90532366	      0.34741344	      9.77331795	    -10.75541499	     -7.49999987	     17.89914743	      0.32152077	     11.97015357	     25.40257012	      0.44335849	      8.31712245	    -14.57093279	     -7.49999987	    -15.47234047	      1.75386879	     -8.69192700	      9.96585185	    -11.38849618	     47.95557012	     11.66272487	     64.11014672	     17.15096585	    -14.27337347	     22.88239170	     26.54799228	     59.56739379
      1.75833330	     -6.62292270	     -0.37443369	     -0.56382013	     -1.03388436	      1.29747122	     -0.05845082	     16.41595337	     -1.37709952	     -1.21181935	     19.80852722	      0.34572402	      9.66987090	    -10.64234636	     -7.49999987	     17.87601633	      0.42906621	     11.95248020	     25.38121320	      0.44298574	      8.27967221	    -14.24915117	     -7.49999987	    -15.42468297	      1.67567819	     -8.69553011	      9.91248822	    -11.35720335	     48.02356568	     11.41677954	     63.71264543	     16.97440080	    -14.22287610	     22.69448455	     26.72396039	     59.54136794
      1.76250000	     -6.46049744	     -0.30242807	     -0.67378411	     -1.03403832	      1.29427378	     -0.05814927	     16.32480562	     -1.41241416	     -1.03711454	     19.97627531	      0.34865178	      9.63204467	    -11.05187857	     -7.49999987	     17.70787844	      0.44816946	     11.63343882	     25.47103236	      0.44455338	      8.64551359	    -13.78991517	     -7.49999987	    -15.62962481	      1.58198120	     -8.55211179	      9.87915339	    -11.34399281	     46.92077795	     11.60161036	     63.51263462	     16.99311755	    -14.04686068	     21.92995405	     26.69243624	     59.55271479
      1.76666670	     -6.60490070	     -0.28520964	     -0.54705218	     -1.03397645	      1.29405907	     -0.05811797	     16.55268578	     -1.52118596	     -1.37036068	     20.23395565	      0.35314915	      9.96973060	    -10.67320993	     -7.49999987	     17.90711903	      0.55281861	     11.85228767	     25.50918178	      0.44521921	      8.66286322	    -13.85644222	     -7.49999987	    -15.40075646	      1.61838181	     -8.88320919	     10.52885336	    -11.46507861	     57.14390239	     10.49524632	     53.86515398	     16.73172535	    -14.20173742	     22.04177835	     27.18901217	     59.81909345
      1.77083330	     -6.58023555	     -0.26491990	     -0.44044290	     -1.03427699	      1.29109299	     -0.05811801	     16.63045858	     -1.58144068	     -1.47877040	     20.49250802	      0.35766174	     10.19226123	    -10.84378925	     -7.49999987	     17.94740144	      0.57346215	     11.81478853	     25.66033657	      0.44785736	      8.91818492	    -13.68488051	     -7.49999987	    -15.28984758	      1.63430719	     -8.78621375	     10.43283712	    -11.52306555	     57.42881067	     10.26374640	     54.28764928	     16.81570359	    -14.18355453	     22.52910562	     27.31568269	     60.23337727
      1.77500000	     -6.80141295	     -0.27433171	     -0.39869528	     -1.03416902	      1.29092313	     -0.05786465	     16.79614903	     -1.51861968	     -1.34512784	     20.37580165	      0.35562483	     10.35602920	    -11.01308727	     -7.49999987	     18.25948328	      0.55614299	     11.80518942	     25.82603764	      0.45074939	      9.11056002	    -13.55228135	     -7.49999987	    -14.87882858	      1.67462595	     -8.75850254	     10.34429598	    -11.48033832	     57.24065469	      9.80133005	     54.56306783	     16.60361351	    -14.10492810	     22.22306890	     27.70204607	     60.16015817
      1.77916670	     -6.79335231	     -0.28311719	     -0.29029149	     -1.03440543	      1.29505445	     -0.05838756	     16.77399417	     -1.46002898	     -1.13749615	     20.37608692	      0.35562981	     10.50877170	    -10.93289778	     -7.49999987	     18.24253389	      0.54111008	     11.81242140	     25.91426487	      0.45228925	      8.92843608	    -13.82400980	     -7.49999987	    -15.01052308	      1.76719179	     -8.56774853	     10.27376149	    -11.60282021	     57.70758541	      9.80169768	     54.49838524	     16.70198445	    -13.94845048	     21.90870924	     27.88746020	     60.19284753
      1.78333330	     -6.76713248	     -0.30244835	     -0.04705069	     -1.03434676	      1.29165742	     -0.05792507	     16.81344019	     -1.44798956	     -1.20810842	     20.59722077	      0.35948932	     10.83081734	    -10.94911274	     -7.49999987	     18.34871477	      0.50655241	     11.84462320	     26.32687474	      0.45949065	      9.14310622	    -13.88357101	     -7.49999987	    -15.03228191	      1.84016829	     -8.79111635	     10.61656067	    -11.69633621	     63.90961946	      9.55916476	     47.87350477	     16.57126505	    -13.99594319	     21.41775515	     28.23914033	     61.06918363
      1.78750000	     -6.80106252	     -0.32281185	      0.07713909	     -1.03462441	      1.29560120	     -0.05865158	     16.78766803	     -1.47258881	     -1.34047032	     20.57627653	      0.35912377	     10.55768083	    -10.96918325	     -7.49999987	     18.40844444	      0.51277894	     11.89560146	     26.32439123	      0.45944730	      9.11120677	    -13.62845855	     -7.49999987	    -15.08053242	      1.90215572	     -8.78297735	     10.57838177	    -11.72727334	     63.63602913	      9.56757190	     48.28551164	     16.54525274	    -13.91794243	     21.19716871	     28.48743502	     60.99242793
      1.79166670	     -6.64294634	     -0.34099562	      0.13596487	     -1.03456872	      1.29541319	     -0.05836668	     16.58150604	     -1.44319299	     -1.29039015	     20.48845524	      0.35759100	     10.52407581	    -10.91939429	     -7.49999987	     18.27276795	      0.45256162	     11.77106212	     26.39310867	      0.46064665	      9.24685235	    -13.48449901	     -7.49999987	    -15.24992236	      1.94749578	     -8.92764989	     10.67264284	    -11.72926084	     63.11753798	      9.66380754	     49.26544344	     16.36567820	    -13.91761707	     20.69701932	     28.78015068	     60.81162480
      1.79583330	     -6.62910405	     -0.21586837	      0.10795069	     -1.03470767	      1.29552252	     -0.05845769	     16.62420405	     -1.55516066	     -1.17028070	     20.57096220	      0.35903102	     10.57795182	    -10.75411440	     -7.49999987	     18.22957231	      0.62760228	     11.87005105	     26.21886370	      0.45760550	      8.98181993	    -13.78587927	     -7.49999987	    -15.22428158	      1.80489196	     -8.69646775	     10.61064877	    -11.64315444	     64.31416970	      9.17596402	     49.45179422	     16.51602426	    -13.86936536	     21.06893584	     28.64711223	     61.05584030
      1.80000000	     -6.63231686	     -0.19263341	      0.17374212	     -1.04103617	      1.29562837	     -0.05348580	     16.76412518	     -1.44718358	     -1.05858104	     20.48479785	      0.35752717	     10.64177619	    -10.73383842	     -7.49999987	     18.45884185	      0.60040384	     11.92223471	     26.22304661	      0.45767850	      9.02400868	    -13.76656404	     -7.49999987	    -15.35449050	      1.71654120	     -8.71665606	     10.69349927	    -11.48645908	     64.34911155	      9.22091958	     49.43530139	     16.70667030	    -13.98131987	     21.05621815	     28.67633251	     61.06344995
      1.80416670	     -6.85756622	     -0.17829639	      0.22442345	     -1.04118116	      1.29551257	     -0.05383175	     17.23799259	     -1.35138980	     -0.91577850	     20.63885176	      0.36021592	     10.50264223	    -11.00182817	     -7.49999987	     19.00416659	      0.58458459	     11.91886315	     26.40241724	      0.46080911	      9.42644869	    -13.00636560	     -7.49999987	    -15.33362608	      1.67011735	     -8.78464878	     10.91842935	    -11.40916525	     64.51816424	      9.26723974	     49.65194604	     16.61262440	    -14.15650529	     21.11173742	     29.08408718	     61.15222872
      1.80833330	     -6.91031449	     -0.20263596	      0.30284209	     -1.04108577	      1.29518755	     -0.05372628	     17.44147131	     -1.25470688	     -0.89960419	     20.73697026	      0.36192841	     10.44299647	    -11.17184971	     -7.49999987	     19.28582613	      0.46976151	     11.86047165	     26.48420580	      0.46223659	      9.66386266	    -12.74019838	     -7.49999987	    -15.50429485	      1.68634577	     -8.78594844	     11.01727065	    -11.26395264	     64.66707361	      9.22803158	     49.74771425	     16.75429298	    -14.27319165	     21.05062899	     29.25886928	     61.23880517
      1.81250000	     -7.04464523	     -0.19700636	      0.37873058	     -1.04122054	      1.29525292	     -0.05403117	     17.73047151	     -1.24264661	     -0.92922311	     20.90887282	      0.36492867	     10.32719702	    -11.25668990	     -7.49999987	     19.57431823	      0.44579550	     11.83668362	     26.59309192	      0.46413701	      9.89720990	    -12.27903048	     -7.49999987	    -15.51534638	      1.64831789	     -8.88691074	     11.23258579	    -11.15504083	     70.43224886	      9.08583956	     42.05340721	     16.67480744	    -14.40334750	     21.05014205	     29.46144129	     63.10022845
      1.81666670	     -7.02368474	     -0.23449482	      0.52366305	     -1.04115081	      1.29484744	     -0.05405949	     17.74644138	     -1.23803189	     -0.91967757	     20.81826890	      0.36334734	     10.28704569	    -11.31513844	     -7.49999987	     19.59185732	      0.36009056	     11.86573757	     26.67430653	      0.46555447	     10.13542307	    -11.86062239	     -7.49999987	    -15.68021780	      1.69864905	     -8.97473970	     11.28996328	    -11.07395624	     69.62426786	      9.07934530	     43.50151130	     16.63281906	    -14.40883203	     20.78290233	     29.76400572	     62.73616933
      1.82083330	     -7.02888842	     -0.27968244	      0.67976810	     -1.04111043	      1.29494395	     -0.05436290	     17.75321307	     -1.25042632	     -0.96134487	     20.72483676	      0.36171664	     10.21180422	    -11.45352059	     -7.49999987	     19.61190110	      0.30157828	     11.92713644	     26.74623872	      0.46680993	     10.29250212	    -11.51625373	     -7.49999987	    -15.68085237	      1.74452907	     -8.87603735	     11.15899747	    -11.11150263	     69.06936805	      9.22834779	     43.79989714	     16.76426661	    -14.37763477	     21.30724871	     29.83894036	     62.84754221
      1.82500000	     -7.02757517	     -0.31641833	      0.88017920	     -1.04113729	      1.29456570	     -0.05440196	     17.72576021	     -1.28245205	     -1.06887413	     20.64543354	      0.36033079	     10.18260402	    -11.54803318	     -7.49999987	     19.66861187	      0.26224227	     11.93665688	     26.89361411	      0.46938211	     10.55299913	    -11.02599267	     -7.49999987	    -15.72425150	      1.80485980	     -8.98233468	     11.01050413	    -11.03901142	     68.91720123	      9.26619263	     43.36120703	     16.85493798	    -14.52145561	     21.97416774	     29.85546326	     63.16278279
